# xmcd
#
# Track frame offsets:
#	150
#	16222
#	32445
#	51165
#	73066
#	90777
#	113390
#	129902
#	158070
#	178862
#	195960
#	212377
#	228190
#	247802
#
# Disc length: 3586 seconds
#
# Revision: 6
# Processed by: cddbd v1.5.2PL0 Copyright (c) Steve Scherf et al.
# Submitted via: EasyCDDAExtractor 15.3.0.1
#
DISCID=980e000e
DTITLE=Varios Artistas - Billboard Hot Latin Tracks - The Best Of 1997 - Pop
DYEAR=2001
DGENRE=Latin
TTITLE0=Luis Miguel - Si Te Vas
TTITLE1=Enrique Iglesias - Miente
TTITLE2=Celine Dion - Sola Otra Vez
TTITLE3=Ricky Martin - Volveras
TTITLE4=Cristian Castro - Lo Mejor De Mi
TTITLE5=Ricardo Montaner - Es Asi
TTITLE6=Shakira - Se Quiere, Se Mata
TTITLE7=Ricardo Arjona - Ella Y El
TTITLE8=Chayanne - Tal Vez Es Amor (Talvez Seja Amor)
TTITLE9=Ana Gabriel - A Pesar De Todos
TTITLE10=Lucero - Tacticas De Guerra
TTITLE11=MDO - No Puedo Olvidarme De Ti
TTITLE12=Jordi - Desesperadamente Enamorado
TTITLE13=Diego Torres - No Lo Soñe
EXTD=
EXTT0=
EXTT1=
EXTT2=
EXTT3=
EXTT4=
EXTT5=
EXTT6=
EXTT7=
EXTT8=
EXTT9=
EXTT10=
EXTT11=
EXTT12=
EXTT13=
PLAYORDER=
